<?xml version="1.0" encoding="UTF-8" standalone="no"?>
<!DOCTYPE svg PUBLIC "-//W3C//DTD SVG 1.1//EN" "http://www.w3.org/Graphics/SVG/1.1/DTD/svg11.dtd">
<svg version="1.1" xmlns="http://www.w3.org/2000/svg" xmlns:xlink="http://www.w3.org/1999/xlink" preserveAspectRatio="xMidYMid meet" viewBox="0 0 640 640" width="640" height="640"><defs><path d="M472.24 275.6C472.24 365.8 399.01 439.03 308.81 439.03C218.6 439.03 145.37 365.8 145.37 275.6C145.37 185.4 218.6 112.16 308.81 112.16C399.01 112.16 472.24 185.4 472.24 275.6Z" id="bdUkxyecc"></path><path d="M414.79 336.42C414.79 393.05 367.81 439.03 309.94 439.03C252.07 439.03 205.09 393.05 205.09 336.42C205.09 279.78 252.07 233.81 309.94 233.81C367.81 233.81 414.79 279.78 414.79 336.42Z" id="faPOInIHf"></path><path d="M296.12 203.21C296.12 231.22 273.88 253.96 246.49 253.96C219.1 253.96 196.87 231.22 196.87 203.21C196.87 175.2 219.1 152.46 246.49 152.46C273.88 152.46 296.12 175.2 296.12 203.21Z" id="d208pL7JGj"></path><path d="M419.25 203.21C419.25 231.22 397.02 253.96 369.63 253.96C342.24 253.96 320 231.22 320 203.21C320 175.2 342.24 152.46 369.63 152.46C397.02 152.46 419.25 175.2 419.25 203.21Z" id="a1IQQXgHop"></path><path d="M247.49 253.96C270.42 240.02 292.4 233.06 313.45 233.06C334.5 233.06 354.8 240.02 374.35 253.96C346.87 279.38 329.7 295.27 322.83 301.63C318.88 305.28 312.87 305.51 308.65 302.19C300.49 295.75 280.11 279.68 247.49 253.96Z" id="b18rvpqOiV"></path><path d="M389.4 205.82C389.4 221.27 373.85 233.81 354.7 233.81C335.55 233.81 320 221.27 320 205.82C320 190.38 335.55 177.84 354.7 177.84C373.85 177.84 389.4 190.38 389.4 205.82Z" id="aaemPXKAh"></path><path d="M298.66 205.82C298.66 221.27 283.11 233.81 263.96 233.81C244.8 233.81 229.25 221.27 229.25 205.82C229.25 190.38 244.8 177.84 263.96 177.84C283.11 177.84 298.66 190.38 298.66 205.82Z" id="bOtlNFy0D"></path><path d="M261.79 194.63C261.79 200.81 256.86 205.82 250.78 205.82C244.71 205.82 239.78 200.81 239.78 194.63C239.78 188.45 244.71 183.43 250.78 183.43C256.86 183.43 261.79 188.45 261.79 194.63Z" id="m583Oo6sl"></path><path d="M380.63 194.63C380.63 200.81 375.7 205.82 369.63 205.82C363.55 205.82 358.62 200.81 358.62 194.63C358.62 188.45 363.55 183.43 369.63 183.43C375.7 183.43 380.63 188.45 380.63 194.63Z" id="d6VTZXnLa2"></path><path d="M296.12 445.37C296.12 461.64 273.88 456.94 246.49 456.94C219.1 456.94 196.87 461.64 196.87 445.37C196.87 429.1 219.1 415.9 246.49 415.9C273.88 415.9 296.12 429.1 296.12 445.37Z" id="c28CTRtcNI"></path><path d="M419.25 440.9C419.25 457.16 397.02 452.46 369.63 452.46C342.24 452.46 320 457.16 320 440.9C320 424.63 342.24 411.42 369.63 411.42C397.02 411.42 419.25 424.63 419.25 440.9Z" id="a2mTV7Oprl"></path><path d="M155.04 241.45C159.81 256.04 162.54 262.76 162.54 289.63C162.54 335.55 154.58 375.07 142.01 375.07C129.45 375.07 119.25 337.79 119.25 291.87C119.25 245.94 144.71 208.66 157.28 208.66C162.49 208.66 151.65 231.11 155.04 241.45Z" id="a2xinrRbun"></path><path d="M462.13 243.69C457.35 258.28 454.63 265 454.63 291.87C454.63 337.79 462.59 377.31 475.15 377.31C487.71 377.31 497.91 340.03 497.91 294.1C497.91 248.18 472.45 210.9 459.89 210.9C454.67 210.9 465.52 233.35 462.13 243.69Z" id="a9WbYH0q"></path></defs><g><g><g><use xlink:href="#bdUkxyecc" opacity="1" fill="#383838" fill-opacity="1"></use><g><use xlink:href="#bdUkxyecc" opacity="1" fill-opacity="0" stroke="#242424" stroke-width="0" stroke-opacity="1"></use></g></g><g><use xlink:href="#faPOInIHf" opacity="1" fill="#ffffff" fill-opacity="1"></use><g><use xlink:href="#faPOInIHf" opacity="1" fill-opacity="0" stroke="#5a23e5" stroke-width="0" stroke-opacity="1"></use></g></g><g><use xlink:href="#d208pL7JGj" opacity="1" fill="#ffffff" fill-opacity="1"></use><g><use xlink:href="#d208pL7JGj" opacity="1" fill-opacity="0" stroke="#5a23e5" stroke-width="0" stroke-opacity="1"></use></g></g><g><use xlink:href="#a1IQQXgHop" opacity="1" fill="#ffffff" fill-opacity="1"></use><g><use xlink:href="#a1IQQXgHop" opacity="1" fill-opacity="0" stroke="#5a23e5" stroke-width="0" stroke-opacity="1"></use></g></g><g><use xlink:href="#b18rvpqOiV" opacity="1" fill="#e6cd2f" fill-opacity="1"></use></g><g><use xlink:href="#aaemPXKAh" opacity="1" fill="#353535" fill-opacity="1"></use><g><use xlink:href="#aaemPXKAh" opacity="1" fill-opacity="0" stroke="#000000" stroke-width="0" stroke-opacity="1"></use></g></g><g><use xlink:href="#bOtlNFy0D" opacity="1" fill="#353535" fill-opacity="1"></use><g><use xlink:href="#bOtlNFy0D" opacity="1" fill-opacity="0" stroke="#000000" stroke-width="0" stroke-opacity="1"></use></g></g><g><use xlink:href="#m583Oo6sl" opacity="1" fill="#ffffff" fill-opacity="1"></use></g><g><use xlink:href="#d6VTZXnLa2" opacity="1" fill="#ffffff" fill-opacity="1"></use></g><g><use xlink:href="#c28CTRtcNI" opacity="1" fill="#e6cd2f" fill-opacity="1"></use></g><g><use xlink:href="#a2mTV7Oprl" opacity="1" fill="#e6cd2f" fill-opacity="1"></use></g><g><use xlink:href="#a2xinrRbun" opacity="1" fill="#383838" fill-opacity="1"></use></g><g><use xlink:href="#a9WbYH0q" opacity="1" fill="#383838" fill-opacity="1"></use></g></g></g></svg>